# xmcd
#
# Track frame offsets: 
#        150
#        13802
#        30365
#        49235
#        63497
#        81547
#        96365
#        109667
#        122762
#        132752
#
# Disc length: 1962 seconds
#
# Revision: 0
# Processed by: cddbd v1.5.2PL0 Copyright (c) Steve Scherf et al.
# Submitted via: ExactAudioCopyFreeDBPlugin 1.0
#
DISCID=8507a80a
DTITLE=Little Junior Parker - You Don't Have To Be Black To Love The B
DTITLE=lues
DYEAR=1971
DGENRE=Blues
TTITLE0=Five Long Years
TTITLE1=Tin Pan Alley
TTITLE2=Blues Shadow Falling
TTITLE3=That's Alright
TTITLE4=Way Back Home
TTITLE5=I Need Love So Bad
TTITLE6=Look On Yonders Wall
TTITLE7=Man Or Mouse
TTITLE8=Sweet Home Chicago
TTITLE9=I Like Your Stlye
EXTD=
EXTT0=
EXTT1=
EXTT2=
EXTT3=
EXTT4=
EXTT5=
EXTT6=
EXTT7=
EXTT8=
EXTT9=
PLAYORDER=
